<svg fill="#003300" xmlns="http://www.w3.org/2000/svg" xmlns:xlink="http://www.w3.org/1999/xlink" version="1.0" x="0px" y="0px" viewBox="0 0 100 100" enable-background="new 0 0 100 100" xml:space="preserve"><path fill="none" stroke="#003300" stroke-linecap="round" stroke-linejoin="round" stroke-miterlimit="10" d="M41.11,67.776H14.443  V23.334H41.11c2.452,0,4.442,1.989,4.442,4.447v44.436C45.553,69.768,43.563,67.776,41.11,67.776z"></path><rect x="50" y="27.224" fill="none" stroke="#003300" stroke-linecap="round" stroke-linejoin="round" stroke-miterlimit="10" width="8.89" height="3.334"></rect><rect x="63.332" y="27.224" fill="none" stroke="#003300" stroke-linecap="round" stroke-linejoin="round" stroke-miterlimit="10" width="26.667" height="3.334"></rect><rect x="54.442" y="33.889" fill="none" stroke="#003300" stroke-linecap="round" stroke-linejoin="round" stroke-miterlimit="10" width="13.334" height="3.335"></rect><rect x="72.22" y="33.889" fill="none" stroke="#003300" stroke-linecap="round" stroke-linejoin="round" stroke-miterlimit="10" width="13.332" height="3.335"></rect><rect x="54.446" y="40.556" fill="none" stroke="#003300" stroke-linecap="round" stroke-linejoin="round" stroke-miterlimit="10" width="4.443" height="3.335"></rect><rect x="63.336" y="40.556" fill="none" stroke="#003300" stroke-linecap="round" stroke-linejoin="round" stroke-miterlimit="10" width="8.89" height="3.335"></rect><rect x="76.668" y="40.556" fill="none" stroke="#003300" stroke-linecap="round" stroke-linejoin="round" stroke-miterlimit="10" width="13.332" height="3.335"></rect><rect x="54.442" y="47.223" fill="none" stroke="#003300" stroke-linecap="round" stroke-linejoin="round" stroke-miterlimit="10" width="8.89" height="3.335"></rect><rect x="67.774" y="47.223" fill="none" stroke="#003300" stroke-linecap="round" stroke-linejoin="round" stroke-miterlimit="10" width="17.777" height="3.335"></rect><rect x="50" y="53.889" fill="none" stroke="#003300" stroke-linecap="round" stroke-linejoin="round" stroke-miterlimit="10" width="4.444" height="3.335"></rect><rect x="58.891" y="53.889" fill="none" stroke="#003300" stroke-linecap="round" stroke-linejoin="round" stroke-miterlimit="10" width="22.22" height="3.335"></rect><rect x="85.556" y="53.889" fill="none" stroke="#003300" stroke-linecap="round" stroke-linejoin="round" stroke-miterlimit="10" width="4.443" height="3.335"></rect><rect x="54.442" y="60.556" fill="none" stroke="#003300" stroke-linecap="round" stroke-linejoin="round" stroke-miterlimit="10" width="31.111" height="3.335"></rect><path fill="none" stroke="#003300" stroke-linecap="round" stroke-linejoin="round" stroke-miterlimit="10" d="M81.109,63.891  h-4.441v3.886H50.002c-2.45,0-4.446,1.991-4.446,4.44h-0.004c0-2.449-1.99-4.44-4.442-4.44H14.443V27.781H10v44.436h31.11  l-0.003,0.006c0,2.451,1.99,4.444,4.443,4.444h0.009c2.457,0,4.447-1.993,4.447-4.444l-0.003-0.006h31.107V63.891z"></path><rect x="76.668" y="57.224" fill="none" stroke="#003300" stroke-linecap="round" stroke-linejoin="round" stroke-miterlimit="10" width="4.441" height="3.332"></rect><rect x="76.668" y="50.558" fill="none" stroke="#003300" stroke-linecap="round" stroke-linejoin="round" stroke-miterlimit="10" width="4.441" height="3.331"></rect><rect x="76.668" y="43.891" fill="none" stroke="#003300" stroke-linecap="round" stroke-linejoin="round" stroke-miterlimit="10" width="4.441" height="3.332"></rect><rect x="76.668" y="37.225" fill="none" stroke="#003300" stroke-linecap="round" stroke-linejoin="round" stroke-miterlimit="10" width="4.441" height="3.332"></rect><rect x="76.668" y="30.558" fill="none" stroke="#003300" stroke-linecap="round" stroke-linejoin="round" stroke-miterlimit="10" width="4.441" height="3.332"></rect><path fill="none" stroke="#003300" stroke-linecap="round" stroke-linejoin="round" stroke-miterlimit="10" d="M76.668,33.889  v-3.332H63.332v-3.334h13.336v-3.89H50.002c-2.45,0-4.446,1.989-4.446,4.447v44.436c0-2.449,1.996-4.44,4.446-4.44h26.666v-3.886  H54.446v-3.335h22.222v-3.332H58.891v-3.335h17.777v-3.331h-8.894v-3.335h8.894v-9.998H72.22v-3.335H76.668z"></path></svg>